#!OML:ASF F:\VICON\USERDATA\INSTALL\rory3\rory3.ASF
:FULLY-SPECIFIED
:DEGREES
168
root -0.337364 17.9774 2.53775 -3.09102 -1.59062 -6.10718
lowerback 11.8045 0.795348 4.61162
upperback 0.856994 1.81653 2.51834
thorax -5.66653 0.807534 -0.251743
lowerneck -15.8123 -3.32574 -1.0448
upperneck 21.6084 -4.46495 0.387149
head 9.46252 -2.12038 -0.259856
rclavicle -1.86361e-015 -2.42517e-014
rhumerus -23.4726 -13.0909 -81.3956
rradius 25.9164
rwrist 3.13591
rhand -19.38 23.5611
rfingers 7.12502
rthumb 6.93835 -6.30516
lclavicle -1.86361e-015 -2.42517e-014
lhumerus -32.9004 -0.599192 84.5349
lradius 29.7855
lwrist 4.6449
lhand -26.2791 29.79
lfingers 7.12502
lthumb 0.276187 59.7696
rfemur -6.69488 7.23387 33.8094
rtibia 32.7454
rfoot -17.9945 -10.3062
rtoes 6.09819
lfemur -28.5608 6.8279 -14.036
ltibia 62.5824
lfoot -8.38397 -2.5452
ltoes -4.70288
169
root -0.330862 17.9584 2.7065 -2.93629 -1.76798 -6.22178
lowerback 11.8477 0.891749 4.86614
upperback 0.755068 1.98259 2.45797
thorax -5.78207 0.87813 -0.486163
lowerneck -15.852 -3.31431 -1.03329
upperneck 21.5851 -4.47776 0.497731
head 9.46449 -2.11264 -0.225868
rclavicle -1.07219e-014 -1.5704e-014
rhumerus -23.0685 -12.7556 -81.5801
rradius 26.186
rwrist 2.75225
rhand -19.4669 23.6666
rfingers 7.12502
rthumb 6.85441 -6.20246
lclavicle -1.07219e-014 -1.5704e-014
lhumerus -33.4793 -1.11661 84.7102
lradius 30.1584
lwrist 4.76677
lhand -26.4349 29.5292
lfingers 7.12502
lthumb 0.125704 59.509
rfemur -6.07296 7.07852 33.9386
rtibia 32.3449
rfoot -18.527 -10.2501
rtoes 5.2723
lfemur -29.2119 6.74695 -14.0411
ltibia 60.7486
lfoot -8.25239 -1.08008
ltoes -3.74177
170
root -0.322194 17.9847 2.88274 -2.71806 -2.10945 -6.38523
lowerback 11.6525 1.00331 5.16127
upperback 0.770328 2.15356 2.44537
thorax -5.63839 0.957722 -0.687463
lowerneck -15.9129 -3.29891 -0.947128
upperneck 21.3516 -4.45074 0.403639
head 9.38922 -2.10506 -0.267406
rclavicle 3.68994e-015 -4.17448e-015
rhumerus -22.5582 -12.2694 -81.7914
rradius 26.6242
rwrist 1.88917
rhand -19.2991 24.0471
rfingers 7.12502
rthumb 7.0164 -5.81664
lclavicle 3.68994e-015 -4.17448e-015
lhumerus -33.7569 -1.24375 84.8585
lradius 30.1991
lwrist 4.8074
lhand -27.1902 27.7408
lfingers 7.12502
lthumb -0.603754 57.7197
rfemur -5.26969 7.452 34.161
rtibia 31.7121
rfoot -18.889 -10.4598
rtoes 5.36304
lfemur -29.6177 6.70933 -13.968
ltibia 58.5845
lfoot -8.21368 0.189454
ltoes -3.87317
171
root -0.309307 17.995 3.05935 -2.51989 -2.35722 -6.48411
lowerback 11.3827 1.06717 5.39688
upperback 0.792604 2.24698 2.44508
thorax -5.45056 1.00268 -0.827138
lowerneck -15.7437 -3.33084 -0.973105
upperneck 21.0667 -4.48165 0.391707
head 9.25915 -2.12615 -0.264631
rclavicle -2.15184e-014 -5.96354e-015
rhumerus -22.219 -11.5712 -81.9727
rradius 27.3332
rwrist 1.12675
rhand -19.3025 24.3152
rfingers 7.12502
rthumb 7.01312 -5.54862
lclavicle -2.15184e-014 -5.96354e-015
lhumerus -34.0799 -1.30348 85.0284
lradius 30.237
lwrist 4.89309
lhand -28.0898 25.9352
lfingers 7.12502
lthumb -1.47265 55.9098
rfemur -4.33764 7.49361 34.2518
rtibia 30.8747
rfoot -19.0331 -10.4042
rtoes 4.74991
lfemur -30.0428 6.44902 -13.9292
ltibia 56.4744
lfoot -8.58144 0.875817
ltoes -4.62007
172
root -0.299748 18.0061 3.23034 -2.31919 -2.39071 -6.42064
lowerback 11.2323 1.1164 5.43598
upperback 0.764467 2.3046 2.39834
thorax -5.38961 1.03075 -0.903159
lowerneck -15.7516 -3.33216 -0.947337
upperneck 21.0009 -4.48217 0.364702
head 9.23641 -2.1277 -0.277527
rclavicle -5.01931e-015 -2.98177e-015
rhumerus -21.8999 -10.8325 -82.1329
rradius 27.9011
rwrist 0.549381
rhand -19.8703 24.3989
rfingers 7.12502
rthumb 6.46501 -5.48243
lclavicle -5.01931e-015 -2.98177e-015
lhumerus -34.5841 -1.46573 85.1878
lradius 30.6046
lwrist 4.85687
lhand -27.7358 26.9271
lfingers 7.12502
lthumb -1.13077 56.9038
rfemur -3.32717 7.39402 34.1382
rtibia 29.728
rfoot -19.051 -10.1892
rtoes 4.90963
lfemur -30.2971 6.13687 -14.0999
ltibia 54.0206
lfoot -8.69116 1.18986
ltoes -4.64004
173
root -0.294096 18.0254 3.39117 -2.16111 -2.60373 -6.47879
lowerback 11.3078 1.25624 5.63375
upperback 0.833296 2.51132 2.30615
thorax -5.33545 1.12878 -1.14269
lowerneck -16.2322 -3.36784 -0.85619
upperneck 20.9977 -4.55674 0.388901
head 9.32278 -2.14919 -0.302827
rclavicle -4.52235e-015 -2.62396e-014
rhumerus -21.4013 -10.2567 -82.3875
rradius 28.6261
rwrist 0.0682248
rhand -20.0219 24.3288
rfingers 7.12502
rthumb 6.31868 -5.55697
lclavicle -4.52235e-015 -2.62396e-014
lhumerus -34.7692 -1.70114 85.2184
lradius 31.2104
lwrist 4.09047
lhand -26.111 31.9764
lfingers 7.12502
lthumb 0.438522 61.9557
rfemur -2.53468 7.41784 34.1972
rtibia 29.0227
rfoot -18.9867 -10.021
rtoes 4.79172
lfemur -30.3298 6.20662 -14.2102
ltibia 51.7818
lfoot -8.17943 1.64424
ltoes -2.79438
174
root -0.289785 18.0476 3.5549 -2.04983 -2.76367 -6.72267
lowerback 11.5257 1.29444 5.90507
upperback 0.806661 2.61644 2.32913
thorax -5.46881 1.16976 -1.29304
lowerneck -16.3753 -3.3305 -0.828871
upperneck 20.8159 -4.51319 0.414353
head 9.28556 -2.12437 -0.293625
rclavicle 1.15916e-014 2.75317e-014
rhumerus -21.1104 -9.28879 -82.7362
rradius 29.6422
rwrist -0.583262
rhand -19.9378 23.5995
rfingers 7.12502
rthumb 6.39985 -6.28382
lclavicle 1.15916e-014 2.75317e-014
lhumerus -35.2241 -1.80442 85.3167
lradius 31.4839
lwrist 4.3851
lhand -26.5183 31.1838
lfingers 7.12502
lthumb 0.0451458 61.1636
rfemur -1.7468 7.5036 34.4962
rtibia 28.4653
rfoot -18.9793 -10.0766
rtoes 4.66526
lfemur -31.3127 5.01792 -13.5207
ltibia 48.7612
lfoot -5.11747 1.64728
ltoes 12.1633
175
root -0.282201 17.9759 3.71478 -1.90778 -2.85251 -6.90491
lowerback 11.723 1.33824 6.01634
upperback 0.64729 2.71932 2.40705
thorax -5.74092 1.20777 -1.29799
lowerneck -16.2703 -3.33684 -0.858866
upperneck 20.7918 -4.50013 0.354359
head 9.25694 -2.12826 -0.305255
rclavicle 2.14315e-014 4.60187e-014
rhumerus -20.9876 -8.56824 -82.8579
rradius 30.5545
rwrist -1.09724
rhand -19.8041 22.6656
rfingers 7.12502
rthumb 6.52896 -7.21374
lclavicle 2.14315e-014 4.60187e-014
lhumerus -35.8806 -1.70795 85.472
lradius 31.6281
lwrist 4.6991
lhand -27.0909 28.9975
lfingers 7.12502
lthumb -0.507892 58.9766
rfemur -1.16705 7.58756 34.775
rtibia 28.139
rfoot -19.1315 -10.3039
rtoes 4.10057
lfemur -30.8599 4.60102 -13.1929
ltibia 46.0176
lfoot -7.62407 2.85521
ltoes 1.58312
